<svg width="49" height="55" viewBox="0 0 49 55" fill="none" xmlns="http://www.w3.org/2000/svg">
<g clip-path="url(#clip0_1683_608)">
<path d="M24.5 0C22.5641 0 21 1.53613 21 3.4375V5.5C13.0157 7.08984 7.00004 14.0293 7.00004 22.3438V24.3633C7.00004 29.4121 5.10785 34.2891 1.69535 38.0703L0.88598 38.9619C-0.0327699 39.9717 -0.25152 41.4219 0.306293 42.6572C0.864105 43.8926 2.12192 44.6875 3.50004 44.6875H45.5C46.8782 44.6875 48.125 43.8926 48.6938 42.6572C49.2625 41.4219 49.0329 39.9717 48.1141 38.9619L47.3047 38.0703C43.8922 34.2891 42 29.4229 42 24.3633V22.3438C42 14.0293 35.9844 7.08984 28 5.5V3.4375C28 1.53613 26.436 0 24.5 0ZM29.4547 52.9912C30.7672 51.7021 31.5 49.9512 31.5 48.125H24.5H17.5C17.5 49.9512 18.2329 51.7021 19.5454 52.9912C20.8579 54.2803 22.6407 55 24.5 55C26.3594 55 28.1422 54.2803 29.4547 52.9912Z" fill="white"/>
</g>
<defs>
<clipPath id="clip0_1683_608">
<rect width="49" height="55" fill="white"/>
</clipPath>
</defs>
</svg>
