<svg width="49" height="43" viewBox="0 0 49 43" fill="none" xmlns="http://www.w3.org/2000/svg">
<path d="M42.875 0H34.635L34.5393 0.0959821L22.385 12.2857H31.1992L31.2949 12.1897L43.4301 0.0287946C43.2482 0.00959814 43.0664 0 42.875 0ZM49 12.2857V6.14286C49 4.69353 48.4928 3.34978 47.6602 2.30357L37.707 12.2857H49ZM28.1463 0H19.3225L19.2268 0.0959821L7.07246 12.2857H15.8867L15.9824 12.1897L28.1367 0H28.1463ZM6.125 0C2.74668 0 0 2.75469 0 6.14286V12.2857H0.583789L0.679492 12.1897L12.8338 0H6.125ZM49 15.3571H0V36.8571C0 40.2453 2.74668 43 6.125 43H42.875C46.2533 43 49 40.2453 49 36.8571V15.3571Z" fill="white"/>
</svg>
