<svg width="48" height="55" viewBox="0 0 48 55" fill="none" xmlns="http://www.w3.org/2000/svg">
<g clip-path="url(#clip0_1683_604)">
<path d="M24.0107 15.1465C17.1964 15.1465 11.7 20.6572 11.7 27.4893C11.7 34.3213 17.1964 39.832 24.0107 39.832C30.825 39.832 36.3214 34.3213 36.3214 27.4893C36.3214 20.6572 30.825 15.1465 24.0107 15.1465ZM24.0107 35.5137C19.6071 35.5137 16.0071 31.915 16.0071 27.4893C16.0071 23.0635 19.5964 19.4648 24.0107 19.4648C28.425 19.4648 32.0143 23.0635 32.0143 27.4893C32.0143 31.915 28.4143 35.5137 24.0107 35.5137ZM39.6964 14.6416C39.6964 16.2422 38.4107 17.5205 36.825 17.5205C35.2285 17.5205 33.9535 16.2314 33.9535 14.6416C33.9535 13.0518 35.2393 11.7627 36.825 11.7627C38.4107 11.7627 39.6964 13.0518 39.6964 14.6416ZM47.85 17.5635C47.6678 13.707 46.7893 10.291 43.9714 7.47656C41.1643 4.66211 37.7571 3.78125 33.9107 3.58789C29.9464 3.3623 18.0643 3.3623 14.1 3.58789C10.2643 3.77051 6.85712 4.65137 4.03926 7.46582C1.22141 10.2803 0.35355 13.6963 0.160693 17.5527C-0.0643066 21.5273 -0.0643066 33.4404 0.160693 37.415C0.342836 41.2715 1.22141 44.6875 4.03926 47.502C6.85712 50.3164 10.2536 51.1973 14.1 51.3906C18.0643 51.6162 29.9464 51.6162 33.9107 51.3906C37.7571 51.208 41.1643 50.3271 43.9714 47.502C46.7785 44.6875 47.6571 41.2715 47.85 37.415C48.075 33.4404 48.075 21.5381 47.85 17.5635ZM42.7285 41.6797C41.8928 43.7852 40.275 45.4072 38.1643 46.2559C35.0036 47.5127 27.5035 47.2227 24.0107 47.2227C20.5178 47.2227 13.0071 47.502 9.85712 46.2559C7.75712 45.418 6.13926 43.7959 5.29284 41.6797C4.03926 38.5107 4.32855 30.9912 4.32855 27.4893C4.32855 23.9873 4.04998 16.457 5.29284 13.2988C6.12855 11.1934 7.74641 9.57129 9.85712 8.72266C13.0178 7.46582 20.5178 7.75586 24.0107 7.75586C27.5035 7.75586 35.0143 7.47656 38.1643 8.72266C40.2643 9.56055 41.8821 11.1826 42.7285 13.2988C43.9821 16.4678 43.6928 23.9873 43.6928 27.4893C43.6928 30.9912 43.9821 38.5215 42.7285 41.6797Z" fill="white"/>
</g>
<defs>
<clipPath id="clip0_1683_604">
<rect width="48" height="55" fill="white"/>
</clipPath>
</defs>
</svg>
