<svg width="49" height="49" viewBox="0 0 49 49" fill="none" xmlns="http://www.w3.org/2000/svg">
<g clip-path="url(#clip0_1683_612)">
<path d="M39.8125 20C39.8125 24.3031 38.3865 28.2781 35.9844 31.5031L48.1004 43.3812C49.2967 44.5531 49.2967 46.4563 48.1004 47.6281C46.9041 48.8 44.9613 48.8 43.765 47.6281L31.649 35.75C28.3568 38.1125 24.299 39.5 19.9062 39.5C8.90996 39.5 0 30.7719 0 20C0 9.22812 8.90996 0.5 19.9062 0.5C30.9025 0.5 39.8125 9.22812 39.8125 20ZM19.9062 33.5C27.5146 33.5 33.6875 27.4531 33.6875 20C33.6875 12.5469 27.5146 6.5 19.9062 6.5C12.2979 6.5 6.125 12.5469 6.125 20C6.125 27.4531 12.2979 33.5 19.9062 33.5Z" fill="white"/>
</g>
<defs>
<clipPath id="clip0_1683_612">
<rect width="49" height="48" fill="white" transform="translate(0 0.5)"/>
</clipPath>
</defs>
</svg>
