<svg width="47" height="49" viewBox="0 0 47 49" fill="none" xmlns="http://www.w3.org/2000/svg">
<path d="M0 7.35714C0 3.575 2.63457 0.5 5.875 0.5H41.125C44.3654 0.5 47 3.575 47 7.35714V41.6429C47 45.425 44.3654 48.5 41.125 48.5H5.875C2.63457 48.5 0 45.425 0 41.6429V7.35714ZM4.40625 36.5V39.9286C4.40625 40.8714 5.06719 41.6429 5.875 41.6429H8.8125C9.62031 41.6429 10.2812 40.8714 10.2812 39.9286V36.5C10.2812 35.5571 9.62031 34.7857 8.8125 34.7857H5.875C5.06719 34.7857 4.40625 35.5571 4.40625 36.5ZM38.1875 34.7857C37.3797 34.7857 36.7188 35.5571 36.7188 36.5V39.9286C36.7188 40.8714 37.3797 41.6429 38.1875 41.6429H41.125C41.9328 41.6429 42.5938 40.8714 42.5938 39.9286V36.5C42.5938 35.5571 41.9328 34.7857 41.125 34.7857H38.1875ZM4.40625 22.7857V26.2143C4.40625 27.1571 5.06719 27.9286 5.875 27.9286H8.8125C9.62031 27.9286 10.2812 27.1571 10.2812 26.2143V22.7857C10.2812 21.8429 9.62031 21.0714 8.8125 21.0714H5.875C5.06719 21.0714 4.40625 21.8429 4.40625 22.7857ZM38.1875 21.0714C37.3797 21.0714 36.7188 21.8429 36.7188 22.7857V26.2143C36.7188 27.1571 37.3797 27.9286 38.1875 27.9286H41.125C41.9328 27.9286 42.5938 27.1571 42.5938 26.2143V22.7857C42.5938 21.8429 41.9328 21.0714 41.125 21.0714H38.1875ZM4.40625 9.07143V12.5C4.40625 13.4429 5.06719 14.2143 5.875 14.2143H8.8125C9.62031 14.2143 10.2812 13.4429 10.2812 12.5V9.07143C10.2812 8.12857 9.62031 7.35714 8.8125 7.35714H5.875C5.06719 7.35714 4.40625 8.12857 4.40625 9.07143ZM38.1875 7.35714C37.3797 7.35714 36.7188 8.12857 36.7188 9.07143V12.5C36.7188 13.4429 37.3797 14.2143 38.1875 14.2143H41.125C41.9328 14.2143 42.5938 13.4429 42.5938 12.5V9.07143C42.5938 8.12857 41.9328 7.35714 41.125 7.35714H38.1875ZM14.6875 10.7857V17.6429C14.6875 19.5393 16.0002 21.0714 17.625 21.0714H29.375C30.9998 21.0714 32.3125 19.5393 32.3125 17.6429V10.7857C32.3125 8.88929 30.9998 7.35714 29.375 7.35714H17.625C16.0002 7.35714 14.6875 8.88929 14.6875 10.7857ZM17.625 27.9286C16.0002 27.9286 14.6875 29.4607 14.6875 31.3571V38.2143C14.6875 40.1107 16.0002 41.6429 17.625 41.6429H29.375C30.9998 41.6429 32.3125 40.1107 32.3125 38.2143V31.3571C32.3125 29.4607 30.9998 27.9286 29.375 27.9286H17.625Z" fill="white"/>
</svg>
