<svg width="48" height="49" viewBox="0 0 48 49" fill="none" xmlns="http://www.w3.org/2000/svg">
<path d="M43.0659 14.7234C43.0964 15.1498 43.0964 15.5762 43.0964 16.0026C43.0964 29.0076 33.198 43.9924 15.1066 43.9924C9.53297 43.9924 4.35534 42.3781 0 39.5762C0.791906 39.6675 1.55325 39.698 2.37562 39.698C6.97453 39.698 11.2081 38.1448 14.5888 35.495C10.2639 35.4036 6.63956 32.5711 5.39081 28.6726C6 28.7639 6.60909 28.8249 7.24875 28.8249C8.13197 28.8249 9.01528 28.703 9.83756 28.4899C5.32997 27.5761 1.94916 23.6168 1.94916 18.8351V18.7133C3.25875 19.4443 4.78172 19.9011 6.39581 19.9619C3.74606 18.1954 2.01009 15.1802 2.01009 11.769C2.01009 9.94166 2.49731 8.26653 3.35016 6.8046C8.19281 12.7741 15.472 16.6725 23.6344 17.099C23.4821 16.368 23.3907 15.6067 23.3907 14.8453C23.3907 9.42388 27.7765 5.00769 33.2283 5.00769C36.0607 5.00769 38.6191 6.1955 40.4161 8.11428C42.6394 7.68791 44.7713 6.86553 46.6597 5.73866C45.9287 8.02297 44.3754 9.94175 42.3349 11.1599C44.3146 10.9468 46.2334 10.3985 47.9998 9.63716C46.6599 11.5863 44.9847 13.3223 43.0659 14.7234Z" fill="white"/>
</svg>
