<svg width="49" height="77" viewBox="0 0 49 77" fill="none" xmlns="http://www.w3.org/2000/svg">
<g clip-path="url(#clip0_1683_610)">
<path d="M47.5609 22.6488C49.4749 20.7689 49.4749 17.716 47.5609 15.8361C45.6468 13.9562 42.5384 13.9562 40.6243 15.8361L24.5003 31.6873L8.36088 15.8512C6.44682 13.9713 3.33838 13.9713 1.42432 15.8512C-0.489746 17.731 -0.489746 20.784 1.42432 22.6639L17.5637 38.5L1.43963 54.3512C-0.474434 56.231 -0.474434 59.284 1.43963 61.1639C3.35369 63.0437 6.46213 63.0437 8.37619 61.1639L24.5003 45.3127L40.6396 61.1488C42.5537 63.0287 45.6621 63.0287 47.5762 61.1488C49.4903 59.2689 49.4903 56.216 47.5762 54.3361L31.4368 38.5L47.5609 22.6488Z" fill="white"/>
</g>
<defs>
<clipPath id="clip0_1683_610">
<rect width="49" height="77" fill="white"/>
</clipPath>
</defs>
</svg>
