<svg width="48" height="43" viewBox="0 0 48 43" fill="none" xmlns="http://www.w3.org/2000/svg">
<path d="M45.8046 10.421C45.2812 8.4348 43.739 6.87051 41.7809 6.33964C38.2318 5.375 24 5.375 24 5.375C24 5.375 9.76836 5.375 6.21911 6.33964C4.26103 6.87059 2.71886 8.4348 2.19545 10.421C1.24445 14.0212 1.24445 21.5326 1.24445 21.5326C1.24445 21.5326 1.24445 29.044 2.19545 32.6441C2.71886 34.6304 4.26103 36.1295 6.21911 36.6604C9.76836 37.625 24 37.625 24 37.625C24 37.625 38.2317 37.625 41.7809 36.6604C43.739 36.1295 45.2812 34.6304 45.8046 32.6441C46.7556 29.044 46.7556 21.5326 46.7556 21.5326C46.7556 21.5326 46.7556 14.0212 45.8046 10.421ZM19.3454 28.3524V14.7128L31.2404 21.5328L19.3454 28.3524Z" fill="white"/>
</svg>
